#!OML:ASF F:\VICON\USERDATA\INSTALL\rory3\rory3.ASF
:FULLY-SPECIFIED
:DEGREES
100
root 0.44578540688556556 18.522697685256606 11.044804401979421 14.72697329541474 5.67139058642054 -1.6663969993232604
lfemur -19.563592091965074 7.650329777626793 -18.042337889328024
ltibia 25.965701669257925
lfoot -6.703285231403607 1.312734275164229
ltoes -12.319886710095245
rfemur -23.24375066771668 -5.927714570800623 21.735955018745674
rtibia 36.04294225841757
rfoot -14.297514800094818 -0.010284225451641316
rtoes 10.114300622743325
lowerback -7.120639880516887 0.0072323931920763584 0.9618628440742248
upperback 0.1682041123523057 0.03580163604690412 1.6072058219510268
thorax -1.8546860511490721 -0.01939229893156985 1.1118848528072278
lowerneck -11.927673486618323 -3.1778026954835923 -2.612337384378456
upperneck 11.262843943203835 -4.378459112541345 2.0084305594088345
head 5.26335231696964 -2.104170797867636 0.6199939346285135
lclavicle 1.8734543427928126e-16 -2.3525347168600724e-15
lhumerus -26.561350641758075 2.7354746790661477 79.01352698694949
lradius 12.553881214299125
lwrist -12.40321981881997
lhand -23.45557059295556 -5.856550337880749
lfingers 7.12502
lthumb 2.4854909883548846 23.91569423913126
rclavicle 1.859030263730984e-16 -2.3552871498974814e-15
rhumerus -26.920241916403025 -18.597015717630484 -73.9658758361835
rradius 25.26153188626765
rwrist 34.695497629735726
rhand -21.472604262318992 -26.317610725968393
rfingers 7.12502
rthumb 5.201594280090129 -56.042417153868165
101
root 0.44211844089742974 18.472676608239112 11.126426754745992 14.727236266582203 5.42924369879167 -1.6073754910601603
lfemur -20.188474390386 7.649145534043382 -18.157938449820904
ltibia 27.38719402360495
lfoot -7.040974148047278 1.37511445412287
ltoes -12.389144469713685
rfemur -24.952736101672638 -5.77036206478311 21.739361893919227
rtibia 36.66041810437677
rfoot -14.20951308520011 -0.023918850662504987
rtoes 9.936695777376688
lowerback -6.906377375545169 0.022855332316961907 0.9456878367708978
upperback 0.1535118602069212 0.052945441437144414 1.5695043202895642
thorax -1.7959406580978015 -0.011064042220855302 1.0741551948540382
lowerneck -11.950160308464056 -3.1096075534559784 -2.640383942433267
upperneck 10.54653389985367 -4.289819673046381 1.8953682998483536
head 4.986027345979433 -2.0878624486257586 0.5851140764049833
lclavicle 1.8730206974412474e-16 -2.3525742405777636e-15
lhumerus -27.308588724987636 2.1509807248577704 78.31848557063368
lradius 13.057388497082352
lwrist -11.773352764655428
lhand -23.59968464067736 -6.074201816369365
lfingers 7.12502
lthumb 2.3780281900133837 23.655665538363188
rclavicle 1.8603054471029122e-16 -2.3550827949427404e-15
rhumerus -27.17506523518487 -18.822251986375658 -73.56745349323616
rradius 25.202970832128333
rwrist 34.951026540419875
rhand -21.44552596022897 -26.200319767237197
rfingers 7.12502
rthumb 5.385641307892396 -55.93764885866191
102
root 0.4369475656272364 18.423759046432192 11.221489734143356 14.80294140881727 5.227182906168059 -1.5518636355975297
lfemur -20.768838924876707 7.662375919821903 -18.24892145915674
ltibia 28.651043467393308
lfoot -7.338125705422037 1.3661803975093747
ltoes -12.277392326923037
rfemur -26.4207354447063 -5.622112301768828 21.737786426976218
rtibia 36.94937132935238
rfoot -14.150639435940938 -0.060485174541422104
rtoes 9.788002744064364
lowerback -6.6977705723126455 0.04750481482775082 0.930872405181318
upperback 0.12314917494343502 0.08338609188096402 1.5354955346235406
thorax -1.7185701508591091 0.002095572085210967 1.0281102813153096
lowerneck -11.95843625446555 -3.0552707233058816 -2.66027362788428
upperneck 9.843997149109873 -4.210393046515351 1.795635587273303
head 4.674584554321925 -2.073257782293442 0.5544626838944582
lclavicle 1.8739948076886502e-16 -2.352431558591003e-15
lhumerus -28.06297602523539 1.3652585811429025 77.62829457660114
lradius 13.71943469555163
lwrist -10.607808158100223
lhand -23.739124971883857 -6.298489501730911
lfingers 7.12502
lthumb 2.2876904314944566 23.391094503232555
rclavicle 1.8638526820428809e-16 -2.3545176550138073e-15
rhumerus -27.372054998242692 -19.023786335315226 -73.1602260786134
rradius 25.104350152762457
rwrist 35.195391084542024
rhand -21.408960071207794 -26.083041889887244
rfingers 7.12502
rthumb 5.561485873994974 -55.831974859081576
103
root 0.4302466828279231 18.37803252036188 11.327734513674896 14.925012958139487 5.08640832038464 -1.4896387039920265
lfemur -21.273519312642104 7.700347833451436 -18.345765603916522
ltibia 29.764222458441516
lfoot -7.607746098815561 1.2700317319446697
ltoes -12.126506891889575
rfemur -27.652918120519132 -5.464708699430853 21.748496061234043
rtibia 37.041436331766434
rfoot -14.134887311590145 -0.11242135390327235
rtoes 9.638190316654644
lowerback -6.4681406739866585 0.07645957727391162 0.9151750147310004
upperback 0.08110934465213315 0.12568475477530877 1.5089983252578003
thorax -1.6320914856234825 0.018675098214130187 0.9914257274168277
lowerneck -11.969234305622148 -3.016225333114181 -2.682598875416623
upperneck 9.224738659033672 -4.142325859219592 1.7053302639281265
head 4.41158741442516 -2.064248130088939 0.5320947554898676
lclavicle 1.8743128415744746e-16 -2.352381629730772e-15
lhumerus -28.692778990276615 0.5261521560012086 76.99481795560665
lradius 14.453397743683844
lwrist -9.023538716086904
lhand -23.876314672844472 -6.5271384295559365
lfingers 7.12502
lthumb 2.205331468922355 23.11874930265647
rclavicle 1.8655248386999626e-16 -2.3542507462156234e-15
rhumerus -27.514349953724853 -19.177631752762306 -72.79514333914366
rradius 25.019908691982813
rwrist 35.36064968066963
rhand -21.34681816268233 -25.963501496811872
rfingers 7.12502
rthumb 5.7568669794070635 -55.71887433642145
